Coordinates
version=1
nRows=9
nColumns=36
inDegrees=yes

Units are S.I. units (second, meters, Newtons, ...)
If the header above contains a line with 'inDegrees', this indicates whether rotational values are in degrees (yes) or radians (no).

endheader
time	pelvis_tilt	pelvis_list	pelvis_rotation	pelvis_tx	pelvis_ty	pelvis_tz	hip_flexion_r	hip_adduction_r	hip_rotation_r	knee_angle_r	knee_angle_r_beta	ankle_angle_r	subtalar_angle_r	mtp_angle_r	hip_flexion_l	hip_adduction_l	hip_rotation_l	knee_angle_l	knee_angle_l_beta	ankle_angle_l	subtalar_angle_l	mtp_angle_l	lumbar_extension	lumbar_bending	lumbar_rotation	arm_flex_r	arm_add_r	arm_rot_r	elbow_flex_r	pro_sup_r	arm_flex_l	arm_add_l	arm_rot_l	elbow_flex_l	pro_sup_l
      0.00000000	     25.47915222	      2.38901621	      8.64598393	      0.13484641	      1.21939273	      0.15487716	    -27.69058442	      4.08212887	     -4.77819657	      7.93017105	      0.13840759	     15.96433659	     -9.29774806	     -7.41698677	    -29.82571861	     -0.39118278	     -5.02734625	      5.41564588	      0.09452085	     20.18455777	     -0.75921931	     -7.41698677	    -38.93255463	      3.54114940	      2.42494335	     13.74595565	     -6.79070656	     17.50819915	     22.53671792	     76.95328590	      9.30417822	     -4.50725518	     25.16693310	     19.78150961	     64.16234963
      0.01666670	     26.22694888	      3.81228862	      8.20782992	      0.13270938	      1.22288264	      0.15598531	    -27.83183881	      2.94656983	     -5.39676507	      9.01657366	      0.15736890	     18.43462741	     -7.59455069	     -7.49354296	    -29.81459781	      1.62359645	     -5.34322070	      6.36299535	      0.11105522	     20.57823158	      0.65137031	     -7.49354296	    -40.54253167	      2.51891030	      1.73987545	     13.87914078	     -5.66661515	      9.25250946	     23.74494892	     86.78708573	      9.49030807	     -4.33908239	     21.11754402	     19.93406256	     68.23471584
      0.03333330	     25.86232159	      4.86885260	      7.78136606	      0.13324452	      1.22270887	      0.15732202	    -28.25869644	      1.82628738	     -6.61575576	      7.80962613	      0.13630369	     18.29268583	     -6.42519490	     -7.49928869	    -29.81935599	      2.85823959	     -6.62298264	      6.01087415	      0.10490954	     21.26285079	      2.94865251	     -7.49928869	    -40.24805467	      1.08752585	      1.80252281	     13.51376300	     -4.65668110	      4.67370380	     24.16351014	     89.39317740	      9.90825163	     -4.43490558	     20.43901418	     19.55111642	     68.12354587
      0.05000000	     25.66066175	      5.44706071	      7.72838974	      0.13297183	      1.22394976	      0.15805000	    -28.37671463	      1.17550373	     -7.33853952	      7.44306265	      0.12990595	     18.69115887	     -5.31232846	     -7.49992458	    -29.84161201	      3.49740907	     -6.81034995	      5.83633214	      0.10186321	     21.20882255	      3.19467491	     -7.49992458	    -40.40563066	      0.47109005	      1.97973166	     13.21498894	     -4.45226571	      2.90029400	     24.54463788	     89.21374772	     10.26259924	     -4.63907978	     20.46444634	     19.37119300	     67.51392381
      0.06666670	     25.47815829	      5.60529105	      7.69426068	      0.13273223	      1.22338321	      0.15846864	    -28.54699205	      1.05172125	     -7.52526044	      6.80702196	      0.11880495	     18.21679744	     -5.16275404	     -7.49999539	    -29.85325270	      3.76052528	     -6.89227291	      5.39504418	      0.09416128	     21.08688376	      3.43470857	     -7.49999539	    -40.37789900	      0.31658994	      2.11642884	     13.12257846	     -4.52240841	      2.77241173	     24.56412786	     88.32536237	     10.36969436	     -4.68172778	     20.36758554	     19.24654390	     66.47638732
      0.08333330	     25.37765525	      5.66416627	      7.64042839	      0.13207080	      1.22233340	      0.15887962	    -28.65709364	      1.03238961	     -7.26571755	      6.45519018	      0.11266432	     17.95927829	     -5.29164766	     -7.49999946	    -29.85936298	      3.89935475	     -6.97676571	      5.05836176	      0.08828507	     20.68624165	      3.24136597	     -7.49999946	    -40.46878099	      0.24355322	      2.32151628	     13.09350304	     -4.76329111	      3.20863517	     24.75188392	     86.71557087	     10.53612384	     -4.69063158	     20.56618845	     19.21079152	     65.18283230
      0.10000000	     25.30085249	      5.77463308	      7.74476213	      0.13227317	      1.22355166	      0.15903648	    -28.80812934	      1.02316672	     -7.21959363	      6.05909193	      0.10575110	     17.46388763	     -5.73355394	     -7.49999977	    -29.86051164	      4.00449139	     -6.62807049	      4.76351100	      0.08313895	     20.01684026	      2.65318837	     -7.49999977	    -40.53371360	      0.18305198	      2.22636155	     13.21166722	     -5.00436111	      5.52170689	     24.56237786	     77.49471075	     10.75944936	     -4.66618397	     20.76891906	     19.05967710	     62.70322131
      0.11666670	     25.17248676	      5.79993661	      7.78577036	      0.13314269	      1.22293041	      0.15950023	    -28.91802224	      1.07835482	     -7.01373811	      5.60212370	      0.09777550	     17.09867985	     -5.89210906	     -7.49999987	    -29.86234038	      4.05637047	     -6.39655381	      4.39708511	      0.07674361	     19.18246778	      2.06249330	     -7.49999987	    -40.49749283	      0.12709489	      2.25035367	     13.02597192	     -4.95447292	      3.79631337	     24.59401322	     85.79062748	     10.75957532	     -4.68526483	     20.35496434	     19.25881211	     63.79874712
      0.13333330	     25.16482077	      5.84791687	      7.74109537	      0.13226627	      1.22365036	      0.16104368	    -29.01096068	      1.14658530	     -6.46957667	      5.22583432	      0.09120802	     16.52676346	     -6.67658290	     -7.49999987	    -29.86185066	      4.09201858	     -6.45681590	      4.21410416	      0.07354999	     18.54883431	      1.77975773	     -7.49999987	    -40.62772143	     -0.04437920	      2.36294773	     13.06859344	     -5.08209286	      4.80219640	     24.41334957	     83.73064174	     10.92078709	     -4.66829462	     20.09723044	     19.25109230	     62.72403549
